<svg xmlns="http://www.w3.org/2000/svg" xmlns:xlink="http://www.w3.org/1999/xlink" viewBox="0 0 117.45 288.85"><defs><style>.cls-1,.cls-11,.cls-12,.cls-14,.cls-17,.cls-23,.cls-25,.cls-6,.cls-8,.cls-9{fill:none;}.cls-2{isolation:isolate;}.cls-3{fill:#00276f;}.cls-4{fill:#f886bc;}.cls-5{fill:#ffab37;}.cls-14,.cls-6{stroke:#00276f;}.cls-17,.cls-6{stroke-linecap:round;}.cls-11,.cls-12,.cls-14,.cls-17,.cls-23,.cls-25,.cls-6,.cls-8,.cls-9{stroke-miterlimit:10;}.cls-7{fill:#00224c;}.cls-8,.cls-9{stroke:#15489b;}.cls-11,.cls-12,.cls-14,.cls-23,.cls-25,.cls-8,.cls-9{stroke-width:0.75px;}.cls-12,.cls-8{stroke-dasharray:2 1.5;}.cls-10{fill:#15489b;}.cls-11,.cls-12{stroke:#1b5abf;}.cls-13{fill:#1b5abf;}.cls-15{fill:#0a172b;}.cls-16,.cls-18{fill:#8dade0;}.cls-17{stroke:#8dade0;stroke-width:0.25px;}.cls-18{opacity:0.55;mix-blend-mode:multiply;}.cls-19,.cls-26{fill:#fff;}.cls-19{opacity:0.51;}.cls-20{clip-path:url(#clip-path);}.cls-21{fill:url(#linear-gradient);}.cls-22{fill:url(#linear-gradient-2);}.cls-23{stroke:#d34f9b;}.cls-24{fill:#6ca0ff;}.cls-25{stroke:#225baf;}</style><clipPath id="clip-path"><path class="cls-1" d="M102,59.4l-5.37-4.68a.71.71,0,0,1-.18-.78l5.66-14.34a.46.46,0,0,1,.73-.2l5.42,4.72a.7.7,0,0,1,.18.79l-5.63,14.26A.51.51,0,0,1,102,59.4Z"/></clipPath><linearGradient id="linear-gradient" x1="101.39" y1="50.52" x2="111.11" y2="33.68" gradientTransform="matrix(-0.97, -0.23, 0.23, -0.97, 196.32, 115.37)" gradientUnits="userSpaceOnUse"><stop offset="0" stop-color="#fff" stop-opacity="0.6"/><stop offset="0.89" stop-color="#fff" stop-opacity="0.1"/></linearGradient><linearGradient id="linear-gradient-2" x1="102.37" y1="52.17" x2="112.07" y2="35.36" xlink:href="#linear-gradient"/></defs><g class="cls-2"><g id="Layer_2" data-name="Layer 2"><g id="OBJECTS"><path class="cls-3" d="M18.23,249.78l2.12-1,13,27.57a4.22,4.22,0,0,0,3.39,2.4l.15.21-3.4,1.6a.56.56,0,0,1-.4,0l-.13,0a3.25,3.25,0,0,1-1.93-1.7l-13.16-28A.83.83,0,0,1,18.23,249.78Z"/><path class="cls-4" d="M54.8,216.2l-24,28.9L22,250.34l12.48,26.52a1.76,1.76,0,0,0,2.34.85h0a1.78,1.78,0,0,0,1-1.73l-1.27-17.6,26.32-21.64"/><path class="cls-5" d="M37.75,257l.56,19.86a2.23,2.23,0,0,1-1.34,2h0a2.42,2.42,0,0,1-3-1.17l-13.63-29,10.76-3.88S30.08,251.58,37.75,257Z"/><path class="cls-6" d="M38.68,260.9a21.56,21.56,0,0,0-5-.52"/><path class="cls-6" d="M38.4,263.56a19,19,0,0,0-4.22-.37"/><path class="cls-6" d="M38.31,265.74a27.8,27.8,0,0,0-3.87-.32"/><path class="cls-7" d="M67.47,114.91l3.44,8a19.68,19.68,0,0,0,4.89,6.8c9.45,8.48,33.34,41.87,33.6,55.93.32,17-51.89,71.79-51.89,71.79L37.12,234.52l41.05-49-35.64-34s-16.28-5.73-9.72-34.86"/><path class="cls-8" d="M43.12,234.41l38.42-47.75a3.63,3.63,0,0,0-.4-5.27L48.48,148.6s-16.28-6-9.75-36.2"/><path class="cls-9" d="M43,237.93,83.78,187.8a5.17,5.17,0,0,0-.58-7.5s-34.84-34.18-35-34.23c-1.73-.75-12.33-6.81-6.19-35.2"/><polygon class="cls-10" points="40.77 230.34 34.03 236.58 56.06 259.36 62.25 252.81 40.77 230.34"/><path class="cls-3" d="M83.12,288v-2.33h30.47a4.2,4.2,0,0,0,3.6-2.05l.26-.05v3.76a.54.54,0,0,1-.15.38l-.09.1a3.23,3.23,0,0,1-2.36,1H83.94A.82.82,0,0,1,83.12,288Z"/><path class="cls-4" d="M71.64,245.23l12.58,29.46,1,10.18h29.31a1.76,1.76,0,0,0,1.76-1.77h0a1.74,1.74,0,0,0-1.13-1.64l-16.47-6.34-8.37-33"/><path class="cls-5" d="M98,273.45l18.2,8a2.21,2.21,0,0,1,1.25,2.06h0a2.43,2.43,0,0,1-2.33,2.22h-32l1.07-11.4S89.79,278.07,98,273.45Z"/><path class="cls-6" d="M101.88,274.26a21.44,21.44,0,0,0-2.59,4.31"/><path class="cls-6" d="M104.17,275.65a18.61,18.61,0,0,0-2.13,3.66"/><path class="cls-6" d="M106.11,276.66a24.85,24.85,0,0,0-1.94,3.36"/><path class="cls-3" d="M21.07,120.29s-1.29,18,6.64,35S67.7,271,67.7,271l28.44-12.23-34.5-117.5a174.46,174.46,0,0,0-7.07-34"/><path class="cls-11" d="M75.67,267.6,36.23,155.12s-8-14-8-24.66"/><path class="cls-12" d="M73.44,268.55,33.05,155.12s-8-14-8-24.66"/><polygon class="cls-13" points="65.24 263.48 67.97 272.29 96.97 260.62 94.29 252.51 65.24 263.48"/><path class="cls-11" d="M30.5,143s8.06-4,10.15-13.2"/><path class="cls-14" d="M61.71,144.4s3.21-3.68,2.9-6.69c-.84-8.29-2.9-18.79-2.9-18.79"/><path class="cls-4" d="M101.72,66.92,94.6,59.69S101.26,43,102,43.12c1.53.33-1.23,7.44-1.23,7.44s3.91-7.61,4.45-7.1c1,.89-1.83,8.68-1.83,8.68s3.4-7.53,4.07-6.73S105,57.89,105,57.89Z"/><path class="cls-4" d="M93.23,60.47l1.33-2.58a38.59,38.59,0,0,1,1.55-7.6c1.12-3.21,2-4.76,2.55-4.76s0,5,0,5,1,4.3-.46,7.09"/><path class="cls-15" d="M102.13,59.49l-4.95-4.63a.69.69,0,0,1-.18-.78l5.62-14.78.45.11a.65.65,0,0,1,.31.13l5.43,4.73a.7.7,0,0,1,.18.78l-5.63,14.27a.54.54,0,0,1-.46.34Z"/><path class="cls-3" d="M102,59.4l-5.37-4.68a.71.71,0,0,1-.18-.78l5.66-14.34a.46.46,0,0,1,.73-.2l5.42,4.72a.7.7,0,0,1,.18.79l-5.63,14.26A.51.51,0,0,1,102,59.4Z"/><polygon class="cls-16" points="96.84 52.91 103.11 58.38 108.03 45.89 101.76 40.43 96.84 52.91"/><path class="cls-16" d="M99.64,56.25c0,.19-.21.29-.35.21a.47.47,0,0,1-.18-.51c0-.2.2-.29.35-.21A.47.47,0,0,1,99.64,56.25Z"/><line class="cls-17" x1="104.55" y1="41.81" x2="105.65" y2="42.78"/><path class="cls-18" d="M101.34,44.25c0,.19-.2.28-.34.2a.46.46,0,0,1-.16-.48c0-.19.19-.28.33-.2A.46.46,0,0,1,101.34,44.25Z"/><path class="cls-19" d="M106.44,46.33l-3.31-2.88a.67.67,0,0,0-1.06.29l-.41,1-.33.06,4,3.5a.67.67,0,0,0,1.07-.29l.25-.64A1,1,0,0,0,106.44,46.33Z"/><line class="cls-17" x1="102.71" y1="44.15" x2="106.04" y2="47.04"/><line class="cls-17" x1="102.4" y1="44.94" x2="104.31" y2="46.6"/><path class="cls-18" d="M98.12,51.92c-.05.18-.2.27-.33.19a.43.43,0,0,1-.17-.48c0-.18.19-.27.33-.2A.46.46,0,0,1,98.12,51.92Z"/><path class="cls-19" d="M103.22,54l-3.31-2.88a.66.66,0,0,0-1.06.29l-.4,1.05-.34.06,4,3.5a.67.67,0,0,0,1.06-.29l.25-.64A1,1,0,0,0,103.22,54Z"/><line class="cls-17" x1="99.49" y1="51.81" x2="102.82" y2="54.71"/><line class="cls-17" x1="99.18" y1="52.61" x2="101.1" y2="54.27"/><path class="cls-18" d="M105.12,52.43c0,.19-.19.28-.33.2a.44.44,0,0,1-.17-.48c0-.19.2-.28.33-.2A.44.44,0,0,1,105.12,52.43Z"/><path class="cls-19" d="M104.51,49.8l-3.57-3.11a.55.55,0,0,0-.89.24l-.39,1a.7.7,0,0,0,.18.77l4.4,3.81-.11-.53.56-1.4A.71.71,0,0,0,104.51,49.8Z"/><line class="cls-17" x1="100.64" y1="47.49" x2="103.97" y2="50.38"/><line class="cls-17" x1="100.33" y1="48.28" x2="102.24" y2="49.94"/><line class="cls-17" x1="102.52" y1="50.21" x2="103.26" y2="50.85"/><g class="cls-20"><polygon class="cls-21" points="108.17 42.04 109.4 43.27 96.87 58.11 95.63 56.88 108.17 42.04"/><polygon class="cls-22" points="108.06 40.66 108.37 40.97 95.84 55.81 95.53 55.5 108.06 40.66"/></g><path class="cls-4" d="M72.37,70.29l7,11.29L94.56,57.89s10.82,1,9.58,6.37c-6,15.18-10.91,38.25-22.73,39.42-13,1.28-29.55-23-29.55-23"/><path class="cls-23" d="M79.4,81.58a48.45,48.45,0,0,0-5.47,10.77"/><path class="cls-4" d="M102.91,67.28s4.36-10.63,4.9-12.65,1.93-7.59,1-7.59-3,5.34-3.23,6.23c-1.78.95-4.31,2.67-4.28,5.76"/><path class="cls-24" d="M45.14,40.43S60,41.81,76.34,75c-3.2,4.66-19.87,14.52-24.48,14.43-5-7.29-9.68-26-9.68-26"/><path class="cls-24" d="M59.77,69.55c-4.61-18.21-11.55-27-11.55-27L33,38.22,20.68,53.52c-12.38,37.64-.54,79-.54,79,8.53,3.64,43.88-3.77,52.5-12.39C72.64,120.16,63.66,84.89,59.77,69.55Z"/><path class="cls-25" d="M63.55,84.62s-6.46-28.68-9.77-34.09"/><path class="cls-4" d="M5.82,66.92S-1.64,87,.33,98.72c3,18.07,32.14,35.33,32.14,35.33s-1,4.86,1.08,7.17a20.26,20.26,0,0,0,6.76-8.47l-2.43-4s-16-25.12-15.5-33.4c.33-5.85,9.41-34.9,9.41-34.9"/><path class="cls-24" d="M33,38.22S16.83,42.75,10,55C1.67,69.89,0,82.53,0,82.53c7.09,7.08,21.35,10.15,29.19,8.52L34.8,62.62"/><line class="cls-25" x1="29.22" y1="91.05" x2="34.36" y2="64.85"/><path class="cls-4" d="M49.76,30,41.55,15.74,35.11,27.11l.43,2.61L33,38.22c2.54,7.53,13,8.38,15.22,4.37L49.76,30"/><path class="cls-4" d="M57,10.88C58.35,16,58.7,33.15,54.64,35S42.36,35.05,40,32c-2.08-2.67-4.05-17-.31-20.47S55.12,3.78,57,10.88Z"/><path class="cls-3" d="M44.58,14.21c3.83.65,7.16-.4,10.13-1.37a12.19,12.19,0,0,0,7.2-5.62c1.2-2.31,1.28-5.57-1.64-6.84A4.78,4.78,0,0,0,58,0c-2.45.17-4.38,1.65-6.23,3.1.77-3.84-6.48-2.08-8-.7a9,9,0,0,1-1.35,1.34c-1.72,1-3.91,1.1-5.74,1.89A8.72,8.72,0,0,0,32,11c-.6,2-1.34,5.25.27,7.62A9.55,9.55,0,0,1,34,22.32l1.27,5.47s2.57-1.84,2.85-2.06a16.31,16.31,0,0,0,2.2-2.82A28.22,28.22,0,0,0,44.58,14.21Z"/><path class="cls-4" d="M42.05,21.62c-.49-.9-1.14-1.91-2.08-2a1.71,1.71,0,0,0-1.31.52,4.86,4.86,0,0,0,0,6.82c.79.73,1.9,1.07,2.64.06l1-4.77A.83.83,0,0,0,42.05,21.62Z"/><path class="cls-23" d="M49.06,35.94s-6.57-.23-9.33-4.31"/><path class="cls-23" d="M53.61,19.16s2.67,4.55,1.84,5.8-3,.5-3,.5"/><path class="cls-3" d="M50.36,19a4.19,4.19,0,0,1,.1,1,.64.64,0,0,1-.89.58c-.79-.26-.65-2.12.33-2A.55.55,0,0,1,50.36,19Z"/><path class="cls-3" d="M56.91,19A3.78,3.78,0,0,1,57,20a.65.65,0,0,1-.9.58c-.79-.26-.64-2.12.33-2A.55.55,0,0,1,56.91,19Z"/><path class="cls-26" d="M54.89,28.93,48.13,27s-.27,5.15,3.82,5.92C54.43,33.38,54.89,28.93,54.89,28.93Z"/><path class="cls-3" d="M50.89,16.51a10.5,10.5,0,0,0-3.83.81,1.06,1.06,0,0,1-.27-1.05,7.52,7.52,0,0,1,4-.95S51.15,16.35,50.89,16.51Z"/><path class="cls-3" d="M54.52,16.44a5,5,0,0,1,2.61.76,1.22,1.22,0,0,0,.27-.92,3.78,3.78,0,0,0-2.73-.9S54.37,16.28,54.52,16.44Z"/><path class="cls-23" d="M37.8,25.93s1.33,2,3.12,1.43"/></g></g></g></svg>