<svg xmlns="http://www.w3.org/2000/svg" viewBox="0 0 110.78 285.9"><defs><style>.cls-1{fill:#00276f;}.cls-2{fill:#f886bc;}.cls-11,.cls-12,.cls-14,.cls-17,.cls-3,.cls-4,.cls-8,.cls-9{fill:none;stroke-miterlimit:10;}.cls-3{stroke:#d34f9b;}.cls-11,.cls-12,.cls-17,.cls-3,.cls-4,.cls-8,.cls-9{stroke-width:0.75px;}.cls-4{stroke:#00276f;}.cls-11,.cls-14,.cls-4{stroke-linecap:round;}.cls-5{fill:#fff;}.cls-6{fill:#dd3c91;}.cls-7{fill:#ef8318;}.cls-11,.cls-12,.cls-8,.cls-9{stroke:#af480e;}.cls-9{stroke-dasharray:2 1.5;}.cls-10{fill:#ffab37;}.cls-12{stroke-dasharray:1.99 1.49;}.cls-13{fill:#af480e;}.cls-14{stroke:#2d5491;stroke-width:0.5px;}.cls-15{fill:#0070e4;}.cls-16{fill:#d34f9b;}.cls-17{stroke:#0e4099;}</style></defs><g id="Layer_2" data-name="Layer 2"><g id="OBJECTS"><path class="cls-1" d="M55.91,16.27a6.13,6.13,0,0,0-3.07-2.7,4.65,4.65,0,0,0-1.18-.14,9,9,0,0,0-4.55,1.16A4.3,4.3,0,0,0,46,15.4a1.39,1.39,0,0,0-.47,1.23,8.81,8.81,0,0,1,0,1.15,11.64,11.64,0,0,1-.3,1.75,10.25,10.25,0,0,0,0,4.61,3,3,0,0,1-.08,1.78,4.06,4.06,0,0,1-.95,1.23,8,8,0,0,0-1.73,2.57,4.28,4.28,0,0,0-.08,3.09,15.27,15.27,0,0,0,.77,1.44,5.49,5.49,0,0,1,.28,4.08.54.54,0,0,0,.42.68,28.68,28.68,0,0,0,8.31.49,15.25,15.25,0,0,0,8.3-3.36"/><path class="cls-2" d="M46.93,13.22c-1.16,5.25-.27,19.43,3.66,21.19S59.48,32.23,61,30.46c2.16-2.59,6.24-13.56,2.58-17S48.56,5.86,46.93,13.22Z"/><path class="cls-2" d="M55.88,31.22l2.88,10.42-1.15,2.82s-.76,5.62.17,5.91c3.73,1.14,12-10.33,12-10.33L63.15,25"/><path class="cls-1" d="M66.28,14.09c-1.14-5-7.38-8.12-12.75-7.3-4.4-1.26-13,3.37-9.13,12.48,0,0,3.4-3.14,7.75-7.3,2.75,8.62,13.2,13,13.2,13A18.15,18.15,0,0,0,66.28,14.09Z"/><path class="cls-1" d="M52.27,7.06c4-5.27,13.49-1.83,16,.82,2.82,3,3.94,6,7.2,8,1.51.92,3.38,1.51,4.22,3.07,1.14,2.15-.26,5.16,1.25,7.07.64.8,3.7,3.27,3.7,7.25-3.34,2.28-6.05,1.55-9.77,3-2.69,1.09-6.4,2.86-9.42,3.37a.55.55,0,0,1-.63-.62c.14-1.29.38-2.93-.17-3.94-.29-.53-.77-.92-1.11-1.42A5.83,5.83,0,0,1,63,29.48a9.48,9.48,0,0,0,.14-4.36A6.86,6.86,0,0,0,60.63,22"/><path class="cls-1" d="M62.42,6.35c-.77.08-1.31-.72-1.58-1.43a4.44,4.44,0,0,1-.29-3C61.3-.29,64.29-.44,66,.69c1.48,1,2.56,3.16,1.36,4.76-.84,1.12-2.57,1.37-3.85,1.61"/><path class="cls-2" d="M60.65,23.71a.69.69,0,0,1,.37-.45,2.83,2.83,0,0,1,2.55-.7,1.87,1.87,0,0,1,.93,1,4.62,4.62,0,0,1-.7,4.68c-1,1.09-3.67,1.83-4.11-.18"/><path class="cls-3" d="M50.69,22.15s-2.58,4.49-1.77,5.3,2.46.32,2.46.32"/><path class="cls-1" d="M53.88,22A3.83,3.83,0,0,0,54,23a.6.6,0,0,0,1,.33c.66-.45.07-2.21-.79-1.85A.54.54,0,0,0,53.88,22Z"/><path class="cls-1" d="M47.23,22a4.27,4.27,0,0,0,.16,1,.6.6,0,0,0,1,.33c.66-.45.07-2.21-.79-1.85A.54.54,0,0,0,47.23,22Z"/><path class="cls-4" d="M52.11,20.17s1.61-2,4.36,0"/><path class="cls-4" d="M47,20.3a1.83,1.83,0,0,1,2.69-.13"/><path class="cls-5" d="M50.07,30l5-1.21s-.89,3-3.36,3C50.51,31.8,50.07,30,50.07,30Z"/><path class="cls-3" d="M56.71,34.23a8.64,8.64,0,0,0,4.68-3.94"/><path class="cls-6" d="M13.44,65.5s-.8,2.18.57,5.92c1.77,4.81,20.82,34.6,32.91,35.71S71.17,72,71.17,60.83,61.33,46.34,55,54.39s-13.58,36-13.58,36Z"/><path class="cls-6" d="M25.9,75.27a23.8,23.8,0,0,0-3.29-5.78c-.55-.75-2.45-3.4-3.53-2.88-.75.35,0,2.33.33,2.89A11.83,11.83,0,0,0,21,71.66"/><path class="cls-2" d="M25.83,248.57,21,271.86S1.93,283.09,1.93,283.33s18.19.9,18.19.9l8.05-3.94H36a1.43,1.43,0,0,0,1.4-1.75l-1.64-7.18,8.52-24.52"/><path class="cls-1" d="M3.24,280.65c2.87-1.67,13.62-7,13.62-7l11.25,6.62h9.72v5.61H28.11v-4.24H26.87a2,2,0,0,0-1.2.41l-4.24,3.28a2.68,2.68,0,0,1-1.61.55H1.93C-.57,285.9-1.13,283.19,3.24,280.65Z"/><polygon class="cls-1" points="32.16 281.35 36.78 275.12 36.24 272.75 30.76 280.31 32.16 281.35"/><path class="cls-7" d="M91.65,93s14.67,23.16-1.65,46.56c-6.6,9.46-28.78,48.92-28.78,48.92L49,259.39H16.65s10.38-70.23,15-82.9,33.83-72.12,33.83-72.12v-9.2"/><path class="cls-8" d="M77.22,138.16c-6.6,9.46-26.2,50.33-26.2,50.33l-12.23,70.9"/><path class="cls-9" d="M79.7,138.16c-6.6,9.46-26.2,50.33-26.2,50.33l-12.23,70.9"/><path class="cls-2" d="M72.85,231.45,89.27,248s-9.08,19.89-8.94,20.08,15.2-9.57,15.2-9.57l4.27-7.73,6.35-4.45a1.42,1.42,0,0,0,.14-2.21l-5.38-4.87L86.8,219.6"/><path class="cls-1" d="M79.87,265.16c1.37-3,7-13.34,7-13.34l12.83-1,7.86-5.49,3.17,4.52-7.86,5.5-2.39-3.42-1,.7a2,2,0,0,0-.74,1l-1.57,5.05a2.64,2.64,0,0,1-1,1.35L81.78,270.14C79.76,271.56,77.77,269.69,79.87,265.16Z"/><polygon class="cls-1" points="103.62 249.37 103.83 241.72 102.05 240.11 101.91 249.32 103.62 249.37"/><path class="cls-10" d="M64,95l-1.19,9.4S24,152,24,172c0,19.59,43.79,68.49,43.79,68.49l24.53-18.67L60.44,176.2s31.17-38,36.55-43.36c9-9,8.38-24.33-3-39.83"/><path class="cls-8" d="M63.22,101.06s17.25,1.77,33.61-3.85"/><line class="cls-11" x1="70.52" y1="101.32" x2="70.52" y2="95.77"/><line class="cls-8" x1="92.11" y1="98.63" x2="90.2" y2="93.5"/><path class="cls-8" d="M86.22,226.48l-32-46.13a7,7,0,0,1,.17-8.19c7.44-9.86,26.25-34.71,30.19-39.32,8.28-9.68,9.14-21.06,2.91-33.16"/><line class="cls-8" x1="86.71" y1="222.52" x2="86.14" y2="221.7"/><path class="cls-12" d="M85.3,220.48,56.59,179.1a4.88,4.88,0,0,1,.11-5.72c6.67-8.83,27-35.72,31.11-40.54,7.92-9.26,8.59-20.46,3.16-32"/><path class="cls-8" d="M90.65,100.16q-.21-.45-.45-.9"/><path class="cls-8" d="M80,100.79s1.07,3.88,4.2,5.38a41.26,41.26,0,0,0,6.63,2.4"/><path class="cls-8" d="M98.4,111.09a20.51,20.51,0,0,0,4-.86"/><path class="cls-8" d="M98.4,113a18.71,18.71,0,0,0,4.36-.81"/><polygon class="cls-13" points="64.07 236.24 68.51 242.45 93.84 222.59 89.03 217.13 64.07 236.24"/><polygon class="cls-13" points="16.06 259.38 17.71 252.4 50.19 252.4 50.19 259.38 16.06 259.38"/><path class="cls-1" d="M28.8,77.9a.37.37,0,0,1,0,.52l-.86.87a.37.37,0,0,1-.52,0l-17-16.74a.37.37,0,0,1,0-.52l.86-.87a.36.36,0,0,1,.51,0"/><line class="cls-14" x1="12.64" y1="63.38" x2="14.01" y2="64.73"/><line class="cls-14" x1="14.55" y1="65.29" x2="14.76" y2="65.5"/><path class="cls-15" d="M89.13,54.57A27.7,27.7,0,0,0,69.55,39.63s-10.5,8.6-11.94,4.83c-1.52,2.27-11.29,19.21-10,27.88S56.49,82.21,58,84.09,63,98,63.5,98.84C78.62,98.55,94,93,94,93S95.93,68.55,89.13,54.57Z"/><path class="cls-2" d="M84.16,58C81.5,47.84,73,42.46,65.57,45.15c-6.43,2.32-7.73,9.82-5.88,19.69s1.39,23.21,1.39,23.21S37.85,79.47,33.49,77.73c-4.48-3.82-10-7.8-11-7.8s-.47,1.56.81,2.84S26.82,76,25,75.88c-1.35-.12-10.2-9-10.2-9-.75.74.13,2.81.13,2.81a11.62,11.62,0,0,0,2.91,6.56C37.1,98.1,59.75,113.32,74.06,108.1,87.54,103.19,85.11,61.57,84.16,58Z"/><path class="cls-16" d="M21.55,77a10.9,10.9,0,0,1-1.28-.88,19.94,19.94,0,0,1-2.5-2.33A20.74,20.74,0,0,1,15.71,71,13.27,13.27,0,0,1,15,69.67s.45.44,1.09,1.1,1.47,1.58,2.29,2.48l2.23,2.53.73.86Z"/><path class="cls-15" d="M86,59.63C84.21,48.49,75.7,41.83,67.41,43.92c-7.14,1.8-9.33,9.71-8.4,20.49.28,3.16.55,6.65.8,10L86,77.48A123,123,0,0,0,86,59.63Z"/><path class="cls-17" d="M86,77.48a123,123,0,0,0,0-17.85C84.21,48.49,75.7,41.83,67.41,43.92c-7.14,1.8-9.33,9.71-8.4,20.49.28,3.16.55,6.65.8,10"/></g></g></svg>